<?xml version="1.0" encoding="iso-8859-1"?>
<!-- Uploaded to: SVG Repo, www.svgrepo.com, Generator: SVG Repo Mixer Tools -->
<!DOCTYPE svg PUBLIC "-//W3C//DTD SVG 1.1//EN" "http://www.w3.org/Graphics/SVG/1.1/DTD/svg11.dtd">
<svg fill="#000000" version="1.1" id="Capa_1" xmlns="http://www.w3.org/2000/svg" xmlns:xlink="http://www.w3.org/1999/xlink" 
	 width="800px" height="800px" viewBox="0 0 30.75 30.75" xml:space="preserve"
	>
<g>
	<path d="M29.25,2.156H1.5c-0.829,0-1.5,0.672-1.5,1.5v19.053c0,0.828,0.671,1.5,1.5,1.5h27.75c0.829,0,1.5-0.672,1.5-1.5V3.656
		C30.75,2.828,30.079,2.156,29.25,2.156z M27.75,21.209H3V5.156h24.75V21.209z M22.75,27.094c0,0.828-0.671,1.5-1.5,1.5H9.5
		c-0.829,0-1.5-0.672-1.5-1.5s0.671-1.5,1.5-1.5h11.75C22.079,25.594,22.75,26.266,22.75,27.094z"/>
</g>
</svg>